<?xml version="1.0" encoding="UTF-8" standalone="no"?>
<!-- Generator: Adobe Illustrator 27.5.0, SVG Export Plug-In . SVG Version: 6.00 Build 0)  -->

<svg
   xmlns:dc="http://purl.org/dc/elements/1.1/"
   xmlns:cc="http://creativecommons.org/ns#"
   xmlns:rdf="http://www.w3.org/1999/02/22-rdf-syntax-ns#"
   xmlns:svg="http://www.w3.org/2000/svg"
   xmlns="http://www.w3.org/2000/svg"
   xmlns:sodipodi="http://sodipodi.sourceforge.net/DTD/sodipodi-0.dtd"
   xmlns:inkscape="http://www.inkscape.org/namespaces/inkscape"
   version="1.1"
   x="0px"
   y="0px"
   viewBox="0 0 118.066 114.63399"
   xml:space="preserve"
   id="svg243"
   sodipodi:docname="female_paceholder.svg"
   width="118.066"
   height="114.63399"
   inkscape:version="0.92.4 (5da689c313, 2019-01-14)"><metadata
   id="metadata249"><rdf:RDF><cc:Work
       rdf:about=""><dc:format>image/svg+xml</dc:format><dc:type
         rdf:resource="http://purl.org/dc/dcmitype/StillImage" /><dc:title></dc:title></cc:Work></rdf:RDF></metadata><defs
   id="defs247" /><sodipodi:namedview
   pagecolor="#ffffff"
   bordercolor="#666666"
   borderopacity="1"
   objecttolerance="10"
   gridtolerance="10"
   guidetolerance="10"
   inkscape:pageopacity="0"
   inkscape:pageshadow="2"
   inkscape:window-width="1920"
   inkscape:window-height="1017"
   id="namedview245"
   showgrid="false"
   inkscape:zoom="1.888"
   inkscape:cx="278.68644"
   inkscape:cy="3.6797391"
   inkscape:window-x="-8"
   inkscape:window-y="-8"
   inkscape:window-maximized="1"
   inkscape:current-layer="g169" />
<g
   id="BACKGROUND"
   transform="translate(319.47455,-2.2523183)">
	
</g>
<g
   id="OBJECTS"
   transform="translate(319.47455,-2.2523183)">
	<g
   id="g169"
   transform="translate(-23.834746,-28.601695)">
		<g
   id="g4871"
   transform="translate(-350.63559,1.059322)"><g
     id="g19">
			<path
   inkscape:connector-curvature="0"
   id="path5"
   d="m 242.633,145.488 3.039,-18.157 -2.242,-7.15 8.293,-5.904 8.293,5.904 -2.242,7.15 3.039,18.157 h 48.504 l -8.03,-23.387 c -2.685,-7.819 -9.031,-13.822 -16.985,-16.077 -8.558,-2.426 -17.67,-4.11 -20.358,-4.586 0.047,0.05 0.098,0.103 0.148,0.151 l -12.859,10.641 -13.604,-10.641 c 0.059,-0.056 0.115,-0.115 0.171,-0.177 -2.584,0.44 -12.297,2.165 -21.277,4.669 -7.969,2.222 -14.315,8.256 -17.001,16.081 l -8.007,23.326 z"
   style="fill:#4d4d4d" />
			<path
   inkscape:connector-curvature="0"
   id="path7"
   d="m 264.916,100.744 c -1.952,-1.905 -3.045,-7.756 -3.388,-12.186 l -0.03,-0.39 -1.932,4.07 c 0.44,2.977 1.285,6.843 2.871,9.188 l -11.226,9.289 -11.908,-9.315 c 1.911,-2.847 2.741,-7.907 3.083,-10.916 l -2.118,-2.915 -0.074,0.989 c -0.343,4.43 -1.432,10.281 -3.391,12.183 l -0.969,0.945 15.417,12.062 14.605,-12.089 z"
   style="fill:#4d4d4d" />
			<path
   inkscape:connector-curvature="0"
   id="path9"
   d="m 273.408,59.761 -4.005,5.461 0.006,-5.092 c 0,0 -6.43,-5.573 -7.697,-8.267 -3.435,1.108 -7,1.66 -10.565,1.66 -3.565,0 -7.13,-0.552 -10.565,-1.66 -0.614,1.306 -2.522,3.373 -4.277,5.11 -1.751,1.737 -3.352,3.148 -3.352,3.148 v 0.006 c 0,0.003 -0.003,0.003 -0.003,0.003 v 6.229 l -4.835,-6.598 c 0,0 -0.475,-17.96 8.663,-18.699 0,0 4.173,-4.212 12.753,-4.714 v -0.041 c 0.419,-0.009 0.827,-0.009 1.232,-0.003 0.402,-0.006 0.809,-0.006 1.229,0.003 v 0.041 c 8.58,0.502 12.753,4.714 12.753,4.714 9.138,0.739 8.663,18.699 8.663,18.699 z"
   style="fill:#4d4d4d" />
			<path
   inkscape:connector-curvature="0"
   id="path11"
   d="m 251.316,93.861 -0.335,-0.004 c -9.051,-0.77 -13.796,-5.488 -16.183,-9.31 -2.575,-4.124 -3.003,-8.041 -3.02,-8.206 l -0.006,-0.121 -0.003,-16.731 0.435,-0.283 c 1.754,-1.55 6.394,-5.897 7.311,-7.846 l 0.443,-0.94 0.989,0.319 c 6.674,2.153 13.729,2.153 20.403,0 l 0.989,-0.319 0.442,0.94 c 0.952,2.023 5.667,6.372 7.404,7.877 l 0.408,0.354 -0.023,16.75 c -0.017,0.165 -0.445,4.082 -3.02,8.206 -2.387,3.822 -7.132,8.54 -16.183,9.31 z m -0.184,-2.363 h 0.083 c 14.99,-1.303 16.865,-14.244 16.997,-15.345 l 0.016,-15.487 c -1.369,-1.211 -5.362,-4.834 -7.065,-7.397 -6.573,1.932 -13.46,1.931 -20.034,-10e-4 -1.685,2.522 -5.649,6.173 -6.998,7.385 l 0.003,15.5 c 0.131,1.092 2.002,14.041 16.998,15.345 z"
   style="fill:#4d4d4d" />
			<path
   inkscape:connector-curvature="0"
   id="path13"
   d="m 232.953,74.58 c -3.605,-0.246 -4.045,-1.94 -3.969,-3.838 0.079,-1.967 -0.634,-4.008 -1.826,-8.67 -1.191,-4.662 5.243,-2.258 5.243,-2.258 l 0.549,1.361 z"
   style="fill:#4d4d4d" />
			<path
   inkscape:connector-curvature="0"
   id="path15"
   d="m 274.513,62.072 c -1.189,4.662 -1.902,6.703 -1.823,8.67 0.071,1.772 -0.307,3.367 -3.28,3.771 l 0.016,-14.382 c 0,0 -0.072,-0.057 -0.202,-0.162 l 0.062,-0.155 c 0,0 6.414,-2.404 5.227,2.258 z"
   style="fill:#4d4d4d" />
			<path
   inkscape:connector-curvature="0"
   id="path17"
   d="m 260.68,90.572 c 0,0 -4.529,7.876 -15.949,6.892 l -2.658,9.156 -4.444,-5.03 3.558,-11.706 c 0,-0.001 10.731,4.724 19.493,0.688 z"
   style="fill:#4d4d4d" />
		</g></g>
		<g
   id="g35">
			<path
   style="fill:#4d4d4d"
   d="m 428.468,354.766 -4.433,3.624 0.006,-5.281 c 0,0 -6.43,-5.573 -7.697,-8.267 -3.435,1.108 -7,1.663 -10.565,1.663 -3.568,0 -7.13,-0.555 -10.565,-1.663 -0.617,1.308 -2.522,3.37 -4.277,5.109 -1.751,1.737 -3.352,3.148 -3.352,3.148 v 0.006 c -0.003,0.003 -0.003,0.003 -0.003,0.003 v 2.259 c -3.06,-0.151 -5.641,-0.283 -5.795,-0.316 0,0 1.196,-14.658 4.74,-17.417 3.544,-2.756 3.544,-3.346 3.544,-3.346 l 4.43,-6.055 0.788,3.594 3.887,-4.578 0.346,3.494 4.209,-6.35 2.437,5.39 2.068,-4.259 1.994,4.185 1.748,-3.84 2.387,5.759 1.01,-3.151 5.045,5.957 c 0,0 3.618,0.836 5.883,5.561 2.262,4.729 2.165,14.771 2.165,14.771 z"
   id="path21"
   inkscape:connector-curvature="0" />
			<path
   style="fill:#4d4d4d"
   d="M 464.644,440.487 455.92,415.08 c -2.685,-7.819 -9.032,-13.822 -16.985,-16.077 -8.559,-2.426 -17.671,-4.11 -20.358,-4.587 0.047,0.05 0.098,0.103 0.148,0.151 l -4.711,3.902 c -4.758,3.934 -11.613,4.029 -16.477,0.224 l -5.275,-4.126 c 0.059,-0.056 0.115,-0.115 0.171,-0.177 -2.584,0.44 -12.298,2.165 -21.278,4.669 -7.969,2.222 -14.314,8.255 -17.001,16.08 l -8.704,25.348 z"
   id="path23"
   inkscape:connector-curvature="0" />
			<path
   style="fill:#4d4d4d"
   d="m 419.547,393.724 c -1.674,-1.633 -2.718,-6.179 -3.193,-10.24 -0.083,-0.672 -0.145,-1.323 -0.196,-1.953 l -0.052,-0.744 c -1.044,0.806 -2.191,1.478 -3.441,2.025 h 1.24 c 0.052,0.548 0.124,1.199 0.227,1.912 0.424,3.131 1.312,7.481 3.1,9.92 -2.707,3.658 -6.954,5.859 -11.542,5.921 h -0.196 c -4.65,0 -8.99,-2.201 -11.739,-5.931 1.839,-2.521 2.728,-7.058 3.141,-10.199 0.083,-0.599 0.145,-1.147 0.186,-1.622 h 1.891 c -1.509,-0.651 -2.8,-1.467 -3.906,-2.366 h -0.155 l -0.083,1.085 c -0.041,0.506 -0.083,1.033 -0.145,1.56 -0.455,4.154 -1.519,8.949 -3.245,10.633 l -0.723,0.692 0.806,1.168 c 3.172,4.609 8.38,7.337 13.971,7.337 h 0.227 c 5.663,-0.072 10.902,-2.955 13.991,-7.709 l 0.527,-0.816 z"
   id="path25"
   inkscape:connector-curvature="0" />
			<path
   style="fill:#4d4d4d"
   d="m 424.817,352.215 c -1.736,-1.498 -6.448,-5.849 -7.409,-7.874 l -0.444,-0.94 -0.982,0.32 c -6.675,2.149 -13.733,2.149 -20.408,0 l -0.982,-0.32 -0.444,0.94 c -0.92,1.953 -5.601,6.334 -7.337,7.864 l -0.413,0.289 v 16.709 l 0.01,0.114 c 0.021,0.165 0.444,4.082 3.017,8.215 1.137,1.819 2.821,3.854 5.26,5.559 0.682,0.486 1.416,0.93 2.211,1.343 2.335,1.199 5.198,2.098 8.711,2.397 l 0.341,0.01 0.052,-0.01 c 3.234,-0.269 5.911,-1.054 8.132,-2.108 0.806,-0.382 1.54,-0.796 2.222,-1.24 2.749,-1.788 4.598,-3.989 5.828,-5.952 2.573,-4.133 2.997,-8.05 3.017,-8.215 l 0.021,-16.75 z m -1.973,16.915 c -0.052,0.444 -0.527,3.72 -2.666,7.14 -1.116,1.788 -2.47,3.296 -4.071,4.516 -1.044,0.806 -2.191,1.478 -3.441,2.025 -2.015,0.889 -4.299,1.447 -6.82,1.664 h -0.083 c -2.656,-0.227 -4.898,-0.827 -6.789,-1.664 -1.509,-0.651 -2.8,-1.467 -3.906,-2.366 -5.311,-4.309 -6.21,-10.571 -6.303,-11.315 v -15.5 c 1.343,-1.209 5.311,-4.857 6.996,-7.378 6.572,1.922 13.464,1.932 20.036,0 1.705,2.563 5.694,6.179 7.068,7.388 z"
   id="path27"
   inkscape:connector-curvature="0" />
			<path
   style="fill:#4d4d4d"
   d="m 387.585,367.559 c -3.605,-0.246 -4.045,-1.94 -3.969,-3.838 0.08,-1.967 -0.634,-4.008 -1.826,-8.67 -1.191,-4.662 5.243,-2.258 5.243,-2.258 l 0.549,1.361 z"
   id="path29"
   inkscape:connector-curvature="0" />
			<path
   style="fill:#4d4d4d"
   d="m 429.145,355.051 c -1.189,4.662 -1.902,6.703 -1.823,8.67 0.071,1.772 -0.307,3.367 -3.28,3.771 l 0.016,-14.382 c 0,0 -0.072,-0.057 -0.201,-0.162 l 0.062,-0.155 c -10e-4,0 6.413,-2.404 5.226,2.258 z"
   id="path31"
   inkscape:connector-curvature="0" />
			<path
   style="fill:#4d4d4d"
   d="m 415.312,383.551 c 0,0 -4.529,7.876 -15.949,6.891 l -2.658,9.156 -4.444,-5.03 3.558,-11.706 c 0,0 10.731,4.725 19.493,0.689 z"
   id="path33"
   inkscape:connector-curvature="0" />
		</g>
		<g
   id="g51">
			<path
   style="fill:#4d4d4d"
   d="m 242.359,440.487 3.313,-19.794 -2.242,-7.15 8.293,-5.904 8.293,5.904 -2.242,7.15 3.313,19.794 h 48.792 l -8.592,-25.024 c -2.685,-7.819 -9.031,-13.822 -16.985,-16.077 -8.557,-2.426 -17.669,-4.11 -20.358,-4.586 0.047,0.05 0.097,0.103 0.148,0.151 l -12.859,10.641 -13.604,-10.641 c 0.059,-0.056 0.115,-0.115 0.171,-0.177 -2.584,0.44 -12.297,2.165 -21.277,4.669 -7.969,2.222 -14.315,8.256 -17.001,16.081 l -8.569,24.963 z"
   id="path37"
   inkscape:connector-curvature="0" />
			<path
   style="fill:#4d4d4d"
   d="m 264.916,394.107 c -1.861,-1.813 -2.942,-7.221 -3.335,-11.56 -0.685,0.478 -1.429,0.927 -2.239,1.329 0.343,3.024 1.178,8.081 3.095,10.913 l -11.226,9.289 -11.909,-9.315 c 1.973,-2.939 2.791,-8.228 3.113,-11.197 -0.812,-0.44 -1.557,-0.93 -2.239,-1.45 -0.357,4.404 -1.444,10.113 -3.373,11.991 l -0.969,0.942 15.417,12.062 14.605,-12.089 z"
   id="path39"
   inkscape:connector-curvature="0" />
			<path
   style="fill:#4d4d4d"
   d="m 260.68,383.935 c 0,0 -4.529,7.876 -15.949,6.891 l -2.658,9.156 -4.444,-5.03 3.558,-11.706 c 0,0 10.731,4.725 19.493,0.689 z"
   id="path41"
   inkscape:connector-curvature="0" />
			<path
   style="fill:#4d4d4d"
   d="m 273.715,355.354 -4.309,1.172 0.003,-3.033 -4.2,-5.984 c -4.46,0.57 -8.949,0.857 -13.438,0.857 -4.489,0 -8.979,-0.287 -13.438,-0.857 l -5.381,5.984 v 3.086 l -4.501,-1.226 c 0,0 -0.697,-17.296 9.129,-23.179 1.276,-0.762 2.487,-1.412 3.63,-1.967 1.554,-0.75 3.172,-1.311 4.829,-1.683 1.654,-0.372 3.346,-0.558 5.044,-0.558 3.396,0 6.763,0.741 9.871,2.242 1.143,0.555 2.357,1.205 3.63,1.967 9.825,5.883 9.131,23.179 9.131,23.179 z"
   id="path43"
   inkscape:connector-curvature="0" />
			<path
   style="fill:#4d4d4d"
   d="m 251.316,387.224 -0.335,-0.004 c -9.051,-0.77 -13.796,-5.487 -16.183,-9.31 -2.575,-4.124 -3.003,-8.041 -3.02,-8.206 l -0.006,-0.121 -0.003,-16.543 6.1,-6.783 0.615,0.079 c 8.817,1.131 17.759,1.131 26.576,0 l 0.708,-0.091 4.826,6.875 -0.023,16.583 c -0.017,0.165 -0.445,4.082 -3.02,8.206 -2.387,3.822 -7.132,8.54 -16.183,9.31 z m -0.185,-2.363 h 0.083 c 6.46,-0.561 11.281,-3.321 14.33,-8.203 2.136,-3.421 2.611,-6.697 2.667,-7.145 l 0.016,-15.647 -3.578,-5.097 c -8.582,1.041 -17.272,1.038 -25.852,-0.012 l -4.667,5.189 0.003,15.57 c 0.132,1.092 2.003,14.041 16.998,15.345 z"
   id="path45"
   inkscape:connector-curvature="0" />
			<path
   style="fill:#4d4d4d"
   d="m 232.953,367.943 c -3.604,-0.246 -4.045,-1.94 -3.969,-3.838 0.079,-1.967 -0.634,-4.008 -1.826,-8.67 -1.191,-4.662 5.243,-2.258 5.243,-2.258 l 0.549,1.361 z"
   id="path47"
   inkscape:connector-curvature="0" />
			<path
   style="fill:#4d4d4d"
   d="m 274.513,355.435 c -1.189,4.662 -1.902,6.703 -1.823,8.67 0.071,1.772 -0.307,3.367 -3.28,3.771 l 0.016,-14.382 c 0,0 -0.072,-0.057 -0.202,-0.162 l 0.062,-0.155 c 0,0 6.414,-2.404 5.227,2.258 z"
   id="path49"
   inkscape:connector-curvature="0" />
		</g>
		<g
   id="g4861"
   transform="translate(-83.686441,-9.0042373)"><g
     transform="translate(-247.88136,9.0042373)"
     id="g67">
			<path
   inkscape:connector-curvature="0"
   id="path53"
   d="M 121.36,87.471 C 120.119,83.673 119.549,79.237 120.692,74.535 123.073,64.738 120.636,51.4 120.636,51.4 117.804,28.41 105.16,33.924 105.16,33.924 103.536,31.118 98.072,30.971 98.072,30.971 76.955,29.051 71.057,51.4 71.057,51.4 c 0,0 -2.437,13.338 -0.053,23.135 1.143,4.702 0.573,9.138 -0.668,12.936 -1.858,5.683 3.196,11.268 9.732,10.698 L 84.1,97.818 c 1.019,-2.827 1.524,-6.418 1.74,-8.66 -7.466,-4.826 -8.341,-13.32 -8.341,-13.32 L 77.496,59.747 c 0,0 0.003,0 0.003,-0.003 v -0.006 c 0,0 16.291,-4.105 24.561,-12.67 l 11.911,12.257 -0.033,16.513 c 0,0 -0.919,8.934 -8.925,13.677 0.23,2.233 0.727,5.559 1.672,8.226 l 4.941,0.428 c 6.536,0.569 11.592,-5.016 9.734,-10.698 z"
   style="fill:#4d4d4d" />
			<path
   inkscape:connector-curvature="0"
   id="path55"
   d="m 153.994,145.488 -8.223,-23.948 c -2.637,-7.68 -8.816,-13.602 -16.587,-15.96 -8.572,-2.601 -17.762,-4.499 -20.479,-4.98 0.047,0.05 -0.118,0.558 -0.068,0.605 L 95.778,134.689 82.174,101.205 c 0.056,-0.056 -0.439,-0.436 -0.382,-0.495 -2.6,0.442 -12.168,2.313 -21.02,4.931 -7.809,2.31 -14.004,8.276 -16.648,15.978 l -8.196,23.869 z"
   style="fill:#4d4d4d" />
			<path
   inkscape:connector-curvature="0"
   id="path57"
   d="m 109.461,100.36 c -1.861,-1.816 -2.942,-7.224 -3.332,-11.563 -0.688,0.481 -1.435,0.93 -2.248,1.335 0.744,6.852 2.425,10.006 3.405,11.309 L 95.747,131.998 83.534,101.429 c 0.998,-1.329 2.705,-4.56 3.429,-11.607 -0.815,-0.443 -1.559,-0.93 -2.242,-1.45 -0.354,4.404 -1.444,10.11 -3.373,11.985 l -0.567,0.552 15.027,37.616 14.206,-37.627 z"
   style="fill:#4d4d4d" />
			<path
   inkscape:connector-curvature="0"
   id="path59"
   d="m 105.225,90.188 c 0,0 -4.529,7.876 -15.949,6.892 L 86.11,107.713 82.174,101.206 85.732,89.5 c 0,-0.001 10.731,4.724 19.493,0.688 z"
   style="fill:#4d4d4d" />
			<path
   inkscape:connector-curvature="0"
   id="path61"
   d="m 77.498,74.196 c -3.604,-0.246 -4.045,-1.94 -3.969,-3.838 0.079,-1.966 -0.634,-4.008 -1.826,-8.67 -1.191,-4.662 5.243,-2.258 5.243,-2.258 l 0.549,1.361 z"
   style="fill:#4d4d4d" />
			<path
   inkscape:connector-curvature="0"
   id="path63"
   d="m 119.058,61.688 c -1.189,4.662 -1.902,6.703 -1.823,8.67 0.071,1.772 -0.307,3.367 -3.28,3.771 l 0.016,-14.382 c 0,0 -0.072,-0.057 -0.202,-0.162 l 0.062,-0.155 c 0,0 6.414,-2.404 5.227,2.258 z"
   style="fill:#4d4d4d" />
			<path
   inkscape:connector-curvature="0"
   id="path65"
   d="M 95.861,93.477 95.526,93.473 C 86.475,92.703 81.73,87.985 79.343,84.163 76.768,80.04 76.34,76.122 76.323,75.957 l -0.006,-0.121 -0.003,-16.713 0.003,-0.002 v -0.297 l 0.893,-0.233 c 0.04,-0.01 4.077,-1.038 9.053,-3.084 6.516,-2.679 11.684,-5.881 14.947,-9.261 l 0.847,-0.877 13.096,13.476 -0.039,17.112 c -0.017,0.165 -0.445,4.082 -3.02,8.206 -2.387,3.822 -7.132,8.54 -16.183,9.31 z m -0.185,-2.363 h 0.083 C 110.751,89.81 112.625,76.867 112.756,75.768 L 112.787,59.802 102.041,48.744 C 94.529,55.842 82.12,59.678 78.675,60.643 l 0.003,15.127 c 0.132,1.091 2.003,14.04 16.998,15.344 z"
   style="fill:#4d4d4d" />
		</g></g>
		<g
   id="g85">
			<path
   style="fill:#4d4d4d"
   d="m 118.992,197.029 c -1.285,1.492 -1.881,3.458 -1.746,5.423 l 0.431,6.217 h -3.727 l 0.003,-2.962 -0.115,-8.949 c -2.629,0.848 -11.176,1.624 -16.539,1.574 -8.66,-0.083 -17.278,-0.892 -17.278,-0.892 -1.229,2.614 -2.522,8.258 -2.522,8.258 v 0.006 l -0.003,0.003 v 2.962 h -3.677 l -2.118,-1.022 c 0,0 -5.045,-18.988 6.326,-20.538 0,0 3.323,-4.947 9.082,-4.873 7.162,0.092 25.645,4.407 33.324,-1.131 0,-0.002 3.048,10.714 -1.441,15.924 z"
   id="path69"
   inkscape:connector-curvature="0" />
			<path
   style="fill:#4d4d4d"
   d="m 154.39,292.487 -8.593,-25.266 c -2.66,-7.82 -8.98,-13.845 -16.921,-16.12 -9.232,-2.645 -19.118,-4.418 -20.895,-4.729 0.204,0.298 0.422,0.564 0.656,0.791 L 95.778,257.804 82.174,247.163 c 0.239,-0.23 0.461,-0.505 0.671,-0.812 -1.426,0.239 -11.931,2.04 -21.632,4.76 -8.022,2.249 -14.43,8.288 -17.113,16.176 l -8.569,25.201 H 154.39 Z"
   id="path71"
   inkscape:connector-curvature="0" />
			<path
   style="fill:#4d4d4d"
   d="m 109.461,246.316 c -1.864,-1.813 -2.942,-7.221 -3.335,-11.563 -0.685,0.481 -1.429,0.93 -2.242,1.335 0.345,3.021 1.181,8.081 3.098,10.913 l -11.226,9.289 -11.909,-9.315 c 1.973,-2.936 2.791,-8.228 3.113,-11.194 -0.812,-0.443 -1.556,-0.93 -2.239,-1.453 -0.357,4.407 -1.447,10.113 -3.373,11.988 l -0.969,0.945 15.417,12.059 14.605,-12.086 z"
   id="path73"
   inkscape:connector-curvature="0" />
			<path
   style="fill:#4d4d4d"
   d="m 95.86,239.436 -0.335,-0.004 c -9.051,-0.77 -13.796,-5.488 -16.183,-9.31 -2.575,-4.124 -3.003,-8.041 -3.02,-8.206 l -0.006,-0.121 -0.004,-16.705 0.136,-0.095 c 0.335,-1.4 1.424,-5.766 2.503,-8.06 l 0.353,-0.751 0.826,0.078 c 0.086,0.008 8.671,0.805 17.179,0.887 5.404,0.052 13.716,-0.728 16.165,-1.518 l 1.523,-0.491 0.137,10.566 -0.016,16.15 -0.006,0.06 c -0.017,0.165 -0.445,4.082 -3.02,8.206 -2.387,3.822 -7.132,8.54 -16.183,9.31 z m -0.184,-2.363 h 0.084 c 14.99,-1.303 16.865,-14.244 16.997,-15.345 l 0.016,-16.016 -0.097,-7.455 c -3.76,0.752 -10.92,1.299 -15.389,1.255 -7.034,-0.068 -14.115,-0.618 -16.519,-0.822 -0.962,2.429 -1.911,6.381 -2.09,7.141 v 15.897 c 0.131,1.092 2.002,14.041 16.998,15.345 z"
   id="path75"
   inkscape:connector-curvature="0" />
			<path
   style="fill:#4d4d4d"
   d="m 77.497,220.155 c -3.605,-0.246 -4.045,-1.94 -3.969,-3.838 0.079,-1.967 -0.634,-4.008 -1.826,-8.67 -1.191,-4.662 5.243,-2.258 5.243,-2.258 l 0.549,1.361 z"
   id="path77"
   inkscape:connector-curvature="0" />
			<path
   style="fill:#4d4d4d"
   d="m 119.058,207.647 c -1.189,4.662 -1.902,6.703 -1.823,8.67 0.071,1.772 -0.307,3.367 -3.28,3.771 l 0.016,-14.382 c 0,0 -0.072,-0.057 -0.202,-0.162 l 0.062,-0.155 c -0.001,0 6.414,-2.404 5.227,2.258 z"
   id="path79"
   inkscape:connector-curvature="0" />
			<path
   style="fill:#4d4d4d"
   d="m 105.224,236.146 c 0,0 -4.529,7.876 -15.949,6.891 l -2.658,9.156 -4.444,-5.03 3.558,-11.706 c 0,0 10.731,4.726 19.493,0.689 z"
   id="path81"
   inkscape:connector-curvature="0" />
			<path
   style="fill:#4d4d4d"
   d="m 112.982,215.461 c 0,7.581 -6.695,12.011 -6.695,12.011 -1.988,-5.271 -9.207,-5.46 -10.943,-5.428 -1.735,-0.033 -8.955,0.157 -10.943,5.428 0,0 -6.694,-4.43 -6.694,-12.011 0,0 -2.12,21.251 17.357,22.752 v 0.041 c 0.095,-0.005 0.186,-0.014 0.28,-0.021 0.094,0.006 0.185,0.015 0.281,0.021 v -0.041 c 19.478,-1.501 17.357,-22.752 17.357,-22.752 z m -17.629,19.219 -0.008,0.001 -0.008,-0.001 c -3.603,-0.278 -6.463,-1.315 -8.675,-3.155 l 1.056,-2.802 c 1.126,-2.986 6.312,-3.137 7.34,-3.137 0.083,0 0.286,0.003 0.286,0.003 0,0 0.204,-0.003 0.287,-0.003 1.028,0 6.214,0.151 7.34,3.137 l 1.056,2.802 c -2.211,1.84 -5.071,2.877 -8.674,3.155 z"
   id="path83"
   inkscape:connector-curvature="0" />
		</g>
		<g
   id="g103">
			<path
   style="fill:#4d4d4d"
   d="m 464.439,292.487 -8.52,-24.812 c -2.685,-7.819 -9.032,-13.822 -16.985,-16.077 -8.559,-2.426 -17.671,-4.11 -20.358,-4.587 0.047,0.05 0.097,0.103 0.148,0.151 l -12.859,10.641 -13.604,-10.641 c 0.059,-0.056 -0.419,-0.119 -0.363,-0.181 -2.578,0.439 -12.035,2.158 -20.84,4.654 -7.918,2.244 -14.213,8.262 -16.886,16.047 l -8.517,24.805 z"
   id="path87"
   inkscape:connector-curvature="0" />
			<path
   style="fill:#4d4d4d"
   d="m 408.29,179.045 c -32.931,0 -27.663,37.599 -26.975,46.577 0.8,10.455 14.767,14.954 14.767,14.954 l 10.583,-0.721 8.104,0.721 c 0,0 14.871,-4.498 15.671,-14.954 0.689,-8.978 5.612,-46.429 -22.15,-46.577 z m 15.735,42.749 c 0,0 -1.549,15.049 -18.128,16.459 h -0.185 c -16.579,-1.41 -18.128,-16.459 -18.128,-16.459 l -0.003,-16.09 c 0,0 20.413,-4.853 25.139,-9.579 0,0 5.643,6.301 11.337,9.722 z"
   id="path89"
   inkscape:connector-curvature="0" />
			<g
   id="g101">
				<path
   style="fill:#4d4d4d"
   d="m 419.548,246.318 c -1.861,-1.816 -2.942,-7.224 -3.334,-11.563 -0.685,0.481 -1.43,0.927 -2.242,1.332 0.345,3.024 1.181,8.081 3.098,10.913 l -11.226,9.289 -11.909,-9.315 c 1.97,-2.936 2.791,-8.225 3.113,-11.194 -0.812,-0.443 -1.557,-0.93 -2.239,-1.45 -0.357,4.404 -1.447,10.113 -3.373,11.988 l -0.969,0.942 15.417,12.062 14.605,-12.089 z"
   id="path91"
   inkscape:connector-curvature="0" />
				<path
   style="fill:#4d4d4d"
   d="m 415.312,236.146 c 0,0 -4.529,7.876 -15.949,6.891 l -2.658,9.156 -4.444,-5.03 3.558,-11.706 c 0,0 10.731,4.725 19.493,0.689 z"
   id="path93"
   inkscape:connector-curvature="0" />
				<path
   style="fill:#4d4d4d"
   d="m 387.585,220.154 c -3.605,-0.246 -4.045,-1.94 -3.969,-3.838 0.08,-1.966 -0.634,-4.008 -1.826,-8.67 -1.191,-4.662 5.243,-2.258 5.243,-2.258 l 0.549,1.361 z"
   id="path95"
   inkscape:connector-curvature="0" />
				<path
   style="fill:#4d4d4d"
   d="m 429.145,207.647 c -1.189,4.662 -1.902,6.703 -1.823,8.67 0.071,1.772 -0.307,3.367 -3.28,3.772 l 0.016,-14.382 c 0,0 -0.072,-0.057 -0.202,-0.162 l 0.062,-0.155 c 0,-0.002 6.414,-2.406 5.227,2.257 z"
   id="path97"
   inkscape:connector-curvature="0" />
				<path
   style="fill:#4d4d4d"
   d="m 405.948,239.435 -0.335,-0.004 c -9.051,-0.77 -13.796,-5.488 -16.183,-9.31 -2.575,-4.124 -3.003,-8.041 -3.02,-8.206 l -0.006,-0.121 -0.003,-17.039 0.927,-0.205 c 5.831,-1.288 21.769,-5.438 25.444,-9.113 l 0.948,-0.949 0.821,1.061 c 0.046,0.06 4.695,6.022 10.125,9.284 l 0.575,0.345 -0.04,16.735 c -0.017,0.165 -0.445,4.082 -3.02,8.206 -2.387,3.822 -7.132,8.54 -16.183,9.31 z m -0.185,-2.363 h 0.083 c 6.46,-0.561 11.281,-3.321 14.33,-8.203 2.137,-3.423 2.611,-6.7 2.667,-7.145 l 0.031,-15.219 c -4.271,-2.721 -7.894,-6.734 -9.427,-8.555 -5.528,4.068 -20.721,7.778 -24.684,8.698 l 0.003,15.08 c 0.131,1.091 2.002,14.04 16.997,15.344 z"
   id="path99"
   inkscape:connector-curvature="0" />
			</g>
		</g>
		<g
   id="g125">
			<path
   style="fill:#4d4d4d"
   d="m 154.565,440.487 -9.352,-26.166 c -2.749,-7.691 -9.057,-13.561 -16.915,-15.787 -9.373,-2.655 -19.434,-4.453 -21.012,-4.729 0.162,0.219 0.337,0.413 0.52,0.588 l -5.009,4.25 c -4.504,3.825 -11.067,3.999 -15.766,0.414 l -6.17,-4.713 c 0.037,-0.037 -10.749,2.163 -20.625,5.145 -7.896,2.384 -14.152,8.437 -16.733,16.271 l -8.146,24.727 z"
   id="path105"
   inkscape:connector-curvature="0" />
			<path
   style="fill:#4d4d4d"
   d="m 108.618,393.537 c -1.645,-1.562 -2.729,-5.869 -3.272,-9.82 -0.112,-0.798 -0.198,-1.58 -0.266,-2.324 l -0.027,-0.292 c -0.83,0.591 -1.757,1.131 -2.791,1.601 l 0.573,-0.006 c 0.071,0.62 0.165,1.37 0.295,2.197 0.481,3.101 1.426,7.257 3.193,9.599 -2.655,3.754 -6.908,6.028 -11.545,6.129 -4.711,0.1 -9.144,-2.07 -11.947,-5.836 1.872,-2.62 2.702,-7.401 3.057,-10.559 0.056,-0.484 0.097,-0.927 0.133,-1.32 l 2.46,-0.029 c -1.506,-0.647 -2.797,-1.438 -3.899,-2.316 l -0.765,0.009 -0.071,1.093 c -0.024,0.369 -0.053,0.75 -0.089,1.137 -0.375,4.25 -1.379,9.324 -3.148,11.09 l -0.694,0.691 0.706,1.04 c 3.163,4.631 8.352,7.366 13.943,7.366 0.121,0 0.242,-0.003 0.363,-0.006 5.73,-0.121 10.954,-3.098 13.979,-7.963 l 0.511,-0.818 z"
   id="path107"
   inkscape:connector-curvature="0" />
			<path
   style="fill:#4d4d4d"
   d="m 104.254,383.419 c 0,0 -4.43,7.932 -15.861,7.091 l -2.543,9.188 -4.507,-4.974 3.411,-11.75 c 0,0.001 10.79,4.591 19.5,0.445 z"
   id="path109"
   inkscape:connector-curvature="0" />
			<path
   style="fill:#4d4d4d"
   d="m 95.322,386.835 -0.335,-0.004 c -9.051,-0.77 -13.796,-5.487 -16.183,-9.31 -2.575,-4.124 -3.003,-8.041 -3.02,-8.206 l -0.006,-0.121 -0.004,-16.705 0.004,-0.003 v -0.53 l 1.145,-0.043 c 0.148,-0.005 15.006,-0.553 28.208,-8.102 l 1.111,-0.635 0.545,1.158 c 0.952,2.023 5.667,6.372 7.404,7.877 l 0.408,0.354 -0.023,16.75 c -0.017,0.165 -0.445,4.082 -3.02,8.206 -2.387,3.822 -7.132,8.54 -16.183,9.31 z m -0.185,-2.363 h 0.083 c 14.99,-1.303 16.865,-14.244 16.997,-15.345 l 0.016,-15.487 c -1.337,-1.182 -5.174,-4.664 -6.94,-7.213 -11.432,6.219 -23.441,7.523 -27.156,7.786 l 0.003,14.915 c 0.131,1.09 2.002,14.04 16.997,15.344 z"
   id="path111"
   inkscape:connector-curvature="0" />
			<path
   style="fill:#4d4d4d"
   d="m 114.188,352.212 c -1.737,-1.506 -6.451,-5.854 -7.402,-7.877 l -0.546,-1.158 -1.11,0.635 c -13.202,7.549 -28.058,8.095 -28.209,8.101 l -1.143,0.044 v 0.529 l -0.003,0.003 0.003,16.705 0.006,0.121 c 0.018,0.165 0.443,4.082 3.019,8.205 1.081,1.725 2.637,3.633 4.855,5.278 0.679,0.505 1.421,0.984 2.23,1.427 2.398,1.311 5.384,2.289 9.1,2.605 l 0.334,0.006 0.05,-0.006 c 3.051,-0.26 5.612,-0.966 7.759,-1.937 0.795,-0.357 1.53,-0.753 2.215,-1.176 2.956,-1.822 4.924,-4.138 6.208,-6.196 2.576,-4.123 3.004,-8.039 3.021,-8.205 l 0.024,-16.749 z m -1.97,16.914 c -0.095,0.789 -1.087,7.664 -7.165,11.974 -0.83,0.591 -1.757,1.131 -2.791,1.601 -1.946,0.892 -4.268,1.53 -7.041,1.772 h -0.083 c -2.59,-0.225 -4.791,-0.801 -6.657,-1.598 -1.506,-0.647 -2.797,-1.438 -3.899,-2.316 -5.44,-4.321 -6.353,-10.683 -6.441,-11.433 l -0.003,-14.915 c 3.712,-0.263 15.724,-1.565 27.154,-7.785 1.766,2.549 5.606,6.031 6.941,7.212 z"
   id="path113"
   inkscape:connector-curvature="0" />
			<path
   style="fill:#4d4d4d"
   d="m 76.959,367.554 c -3.605,-0.246 -4.045,-1.94 -3.969,-3.838 0.079,-1.966 -0.634,-4.008 -1.826,-8.67 -1.191,-4.662 5.243,-2.258 5.243,-2.258 l 0.549,1.361 z"
   id="path115"
   inkscape:connector-curvature="0" />
			<path
   style="fill:#4d4d4d"
   d="m 118.519,355.046 c -1.189,4.662 -1.902,6.703 -1.823,8.67 0.071,1.772 -0.307,3.367 -3.281,3.771 l 0.016,-14.382 c 0,0 -0.072,-0.057 -0.202,-0.162 l 0.062,-0.155 c 0.001,0 6.415,-2.404 5.228,2.258 z"
   id="path117"
   inkscape:connector-curvature="0" />
			<g
   id="g123">
				<path
   style="fill:#4d4d4d"
   d="m 115.91,359.327 c -0.721,0.916 -1.568,1.713 -2.505,2.404 l 0.009,-8.627 c 0,0 -6.43,-5.573 -7.697,-8.267 -6.817,3.899 -14.006,5.96 -19.493,7.053 -5.485,1.09 -9.265,1.205 -9.265,1.205 v 0.006 c 0,0.003 -0.003,0.003 -0.003,0.003 v 5.337 l -5.251,-2.363 c 0,0 -5.437,-20.766 11.962,-26.729 21.117,-7.236 27.518,-0.346 31.847,4.578 4.478,5.086 7.189,16.737 0.396,25.4 z"
   id="path119"
   inkscape:connector-curvature="0" />
				<ellipse
   style="fill:#4d4d4d"
   cx="96.686996"
   cy="324.995"
   rx="13.798"
   ry="8.8290005"
   id="ellipse121" />
			</g>
		</g>
		<g
   id="g147">
			<path
   style="fill:#4d4d4d"
   d="m 382.542,110.882 c -1.181,-2.296 -1.985,-4.798 -2.291,-7.445 5.662,-1.264 10.479,-2.118 12.183,-2.41 2.248,-2.439 3.175,-8.598 3.494,-11.87 -7.469,-4.826 -8.344,-13.32 -8.344,-13.32 l -0.003,-16.09 c 0,0 0.003,0 0.003,-0.003 v -0.006 c 0,0 9.188,-4.253 17.458,-12.818 l 19.015,12.405 -0.033,16.513 c 0,0 -0.919,8.937 -8.928,13.681 0.354,3.361 1.299,9.2 3.488,11.536 0.038,0.044 0.077,0.089 0.121,0.127 2.038,0.325 5.68,0.951 9.587,1.811 -0.265,2.81 -1.081,5.468 -2.327,7.891 h 11.311 c -0.334,-1.895 -0.677,-3.894 -1.022,-5.974 -2.177,-13.11 -4.187,-24.791 -4.542,-38.129 -1.102,-41.514 -21.428,-36.783 -28.26,-33.493 -3.151,-1.48 -24.07,-8.678 -26.07,28.379 -0.771,14.327 -3.382,29.229 -6.129,44.005 -0.336,1.81 -0.666,3.548 -0.986,5.212 h 12.275 z"
   id="path127"
   inkscape:connector-curvature="0" />
			<path
   style="fill:#4d4d4d"
   d="m 464.08,145.488 -8.16,-23.769 c -2.682,-7.812 -9.017,-13.817 -16.962,-16.071 -0.898,-0.255 -1.802,-0.501 -2.703,-0.739 -2.747,-0.724 -5.476,-1.368 -7.963,-1.917 -1.099,11.634 -11.445,20.751 -24.044,20.751 -12.434,0 -22.677,-8.887 -23.997,-20.305 -2.88,0.641 -5.978,1.394 -8.996,2.233 -0.052,0.014 -0.103,0.029 -0.155,0.043 -7.947,2.22 -14.265,8.258 -16.945,16.062 l -8.142,23.712 z"
   id="path129"
   inkscape:connector-curvature="0" />
			<g
   id="g145">
				<path
   style="fill:#4d4d4d"
   d="m 396.409,106.335 -14.227,3.86 c -0.992,-2.103 -1.657,-4.377 -1.932,-6.758 5.662,-1.264 10.479,-2.118 12.183,-2.41 0.033,-0.035 0.065,-0.071 0.092,-0.106 l 0.275,0.094 z"
   id="path131"
   inkscape:connector-curvature="0" />
				<path
   style="fill:#4d4d4d"
   d="M 405.935,96.799"
   id="path133"
   inkscape:connector-curvature="0" />
				<path
   style="fill:#4d4d4d"
   d="m 387.585,74.196 c -3.605,-0.246 -4.045,-1.94 -3.969,-3.838 0.079,-1.966 -0.634,-4.008 -1.826,-8.67 -1.191,-4.662 5.243,-2.258 5.243,-2.258 l 0.549,1.361 z"
   id="path135"
   inkscape:connector-curvature="0" />
				<path
   style="fill:#4d4d4d"
   d="m 429.145,61.688 c -1.189,4.662 -1.902,6.703 -1.823,8.67 0.071,1.772 -0.307,3.367 -3.28,3.771 l 0.016,-14.382 c 0,0 -0.072,-0.057 -0.202,-0.162 l 0.062,-0.155 c 0,0 6.414,-2.404 5.227,2.258 z"
   id="path137"
   inkscape:connector-curvature="0" />
				<path
   style="fill:#4d4d4d"
   d="m 405.948,93.477 -0.335,-0.004 c -9.051,-0.77 -13.796,-5.488 -16.183,-9.31 -2.575,-4.123 -3.003,-8.041 -3.02,-8.206 l -0.006,-0.121 -0.004,-16.693 0.003,-0.002 v -0.203 l 0.752,-0.301 c 0.104,-0.041 10.518,-4.187 16.338,-12.26 l 0.647,-0.897 21.1,13.191 -0.04,17.287 c -0.017,0.165 -0.445,4.082 -3.02,8.206 -2.387,3.822 -7.132,8.54 -16.183,9.31 z m -0.184,-2.363 h 0.083 c 6.46,-0.561 11.281,-3.321 14.329,-8.203 2.137,-3.423 2.612,-6.7 2.667,-7.145 l 0.031,-15.789 -18.13,-11.334 c -5.391,6.891 -13.481,10.79 -15.981,11.881 l 0.003,15.246 c 0.131,1.091 2.002,14.04 16.998,15.344 z"
   id="path139"
   inkscape:connector-curvature="0" />
				<path
   style="fill:#4d4d4d"
   d="m 420.216,101.423 -0.666,-1.064 c -1.864,-1.816 -2.945,-7.221 -3.337,-11.56 -0.354,0.248 -0.727,0.49 -1.116,0.718 -0.36,0.216 -0.732,0.419 -1.122,0.611 0.021,0.184 0.044,0.376 0.069,0.573 -6.695,2.424 -14.151,0.283 -17.012,-0.736 0.005,-0.048 0.012,-0.101 0.017,-0.147 -0.39,-0.21 -0.762,-0.431 -1.119,-0.662 -0.39,-0.254 -0.762,-0.514 -1.116,-0.786 -0.357,4.404 -1.447,10.11 -3.373,11.985 l -0.679,0.661 h 1.559 l -0.057,0.188 4.105,5.153 2.997,-9.279 c 8.198,0.707 12.844,-3.152 14.814,-5.386 0.432,2.989 1.274,6.935 2.877,9.324 z"
   id="path141"
   inkscape:connector-curvature="0" />
				<path
   style="fill:#4d4d4d"
   d="m 396.409,106.335 -14.227,3.86 c -0.992,-2.103 -1.657,-4.377 -1.932,-6.758 5.662,-1.264 9.649,-2.288 11.353,-2.58 0.032,-0.035 0.895,0.099 0.922,0.063 l 0.275,0.094 z"
   id="path143"
   inkscape:connector-curvature="0" />
			</g>
		</g>
		<g
   id="g167">
			<path
   style="fill:#4d4d4d"
   d="m 281.143,240.281 h -19.939 c -0.363,-1.746 -0.597,-3.473 -0.735,-4.808 8.007,-4.743 8.926,-13.678 8.926,-13.678 l 0.032,-15.946 -12.895,0.024 -4.725,-5.464 -4.726,5.296 c 0,0 -13.784,-0.053 -14.13,0 l 0.003,16.091 c 0,0 0.874,8.494 8.341,13.32 -0.133,1.373 -0.372,3.261 -0.774,5.166 h -19.334 c 0,0 3.521,-28.436 7.038,-44.485 3.231,-14.729 20.019,-15.701 22.751,-15.763 v -0.003 c 0,0 0.068,0 0.189,0 0.121,0 0.189,0 0.189,0 v 0.003 c 2.732,0.062 19.52,1.034 22.751,15.763 3.517,16.048 7.038,44.484 7.038,44.484 z"
   id="path149"
   inkscape:connector-curvature="0" />
			<path
   style="fill:#4d4d4d"
   d="m 237.759,246.994 c -0.177,0.033 -0.387,0.068 -0.626,0.109 0.239,-0.044 0.449,-0.079 0.626,-0.109 z"
   id="path151"
   inkscape:connector-curvature="0" />
			<path
   style="fill:#4d4d4d"
   d="m 309.807,292.487 -8.521,-24.815 c -2.679,-7.803 -9.004,-13.809 -16.941,-16.063 -5.533,-1.571 -11.303,-2.832 -15.422,-3.656 -1.335,12.186 -9.064,34.659 -18.4,34.659 -9.315,0 -17.033,-22.379 -18.391,-34.582 -4.242,0.83 -10.041,2.074 -15.568,3.613 -7.983,2.223 -14.349,8.253 -17.04,16.091 l -8.499,24.753 z"
   id="path153"
   inkscape:connector-curvature="0" />
			<path
   style="fill:#4d4d4d"
   d="m 270.51,248.488 -0.886,2.191 -6.19,-2.507 -0.165,-0.162 c -2.513,-2.448 -3.538,-8.494 -3.922,-11.923 0.809,-0.405 1.553,-0.854 2.239,-1.329 0.378,4.223 1.412,9.454 3.184,11.403 z"
   id="path155"
   inkscape:connector-curvature="0" />
			<path
   style="fill:#4d4d4d"
   d="m 260.68,236.146 c -0.567,0.261 -0.709,-0.942 -0.327,-1.926 h -0.08 c -2.522,1.592 -5.55,2.549 -9.058,2.853 h -0.083 c -3.801,-0.331 -6.758,-1.409 -9.055,-2.853 h -0.703 c -0.027,0.359 -0.067,0.791 -0.117,1.266 -0.041,-0.018 -0.07,-0.03 -0.07,-0.03 l -3.557,11.704 c 0,0 -0.001,0.001 -0.001,0.001 l -5.497,0.869 0.13,11.005 c 0,0 12.628,-3.994 14.686,-15.918 9.792,-0.126 13.732,-6.971 13.732,-6.971 z"
   id="path157"
   inkscape:connector-curvature="0" />
			<path
   style="fill:#4d4d4d"
   d="m 232.953,220.154 c -3.605,-0.246 -4.045,-1.94 -3.969,-3.838 0.079,-1.966 -0.634,-4.008 -1.827,-8.67 -1.191,-4.662 5.243,-2.258 5.243,-2.258 l 0.549,1.361 z"
   id="path159"
   inkscape:connector-curvature="0" />
			<path
   style="fill:#4d4d4d"
   d="m 274.514,207.647 c -1.189,4.662 -1.902,6.703 -1.823,8.67 0.071,1.772 -0.307,3.367 -3.28,3.772 l 0.016,-14.382 c 0,0 -0.072,-0.057 -0.202,-0.162 l 0.062,-0.155 c -10e-4,-0.002 6.414,-2.406 5.227,2.257 z"
   id="path161"
   inkscape:connector-curvature="0" />
			<path
   style="fill:#4d4d4d"
   d="m 251.316,239.435 -0.335,-0.004 c -9.051,-0.77 -13.796,-5.488 -16.183,-9.31 -2.575,-4.124 -3.003,-8.041 -3.02,-8.206 l -0.006,-0.121 -0.004,-17.102 1.001,-0.155 c 0.118,-0.018 0.43,-0.067 13.783,-0.016 l 5.267,-5.903 5.251,6.072 13.54,-0.026 -0.041,17.251 c -0.017,0.165 -0.445,4.082 -3.02,8.206 -2.387,3.822 -7.132,8.54 -16.183,9.31 z m -0.184,-2.363 h 0.083 c 6.46,-0.561 11.281,-3.321 14.33,-8.203 2.138,-3.423 2.612,-6.7 2.668,-7.145 l 0.03,-14.693 -12.251,0.023 -4.2,-4.856 -4.184,4.69 -0.532,-0.002 c -4.308,-0.017 -10.454,-0.032 -12.943,-0.019 l 0.003,14.861 c 0.129,1.091 2,14.04 16.996,15.344 z"
   id="path163"
   inkscape:connector-curvature="0" />
			<path
   style="fill:#4d4d4d"
   d="m 260.273,234.22 c -2.522,1.592 -5.55,2.549 -9.058,2.853 h -0.083 c -3.801,-0.331 -6.758,-1.409 -9.055,-2.853 h -0.703 c -0.044,0.579 -0.115,1.332 -0.222,2.186 2.514,1.518 5.73,2.676 9.829,3.024 l 0.334,0.006 0.05,-0.006 c 2.555,-0.216 4.77,-0.747 6.681,-1.486 0.922,-0.995 1.722,-2.218 2.307,-3.724 z"
   id="path165"
   inkscape:connector-curvature="0" />
		</g>
	</g>
</g>
<g
   id="DESIGNED_BY_FREEPIK"
   transform="translate(319.47455,-2.2523183)">
	<g
   id="g240">
		<g
   id="g192">
			<path
   style="fill:#4d4d4d"
   d="m 180.308,484.784 v -0.161 c -0.218,0.249 -0.432,0.452 -0.644,0.608 -0.212,0.157 -0.441,0.276 -0.689,0.356 -0.247,0.082 -0.517,0.122 -0.81,0.122 -0.388,0 -0.747,-0.082 -1.078,-0.246 -0.33,-0.164 -0.616,-0.399 -0.857,-0.704 -0.242,-0.305 -0.425,-0.662 -0.549,-1.074 -0.124,-0.412 -0.187,-0.857 -0.187,-1.335 0,-1.013 0.247,-1.804 0.742,-2.369 0.495,-0.565 1.146,-0.848 1.953,-0.848 0.467,0 0.861,0.081 1.181,0.24 0.321,0.16 0.633,0.408 0.938,0.739 v -2.392 c 0,-0.333 0.066,-0.584 0.199,-0.754 0.132,-0.17 0.321,-0.255 0.567,-0.255 0.245,0 0.434,0.078 0.567,0.234 0.133,0.157 0.199,0.386 0.199,0.691 v 7.147 c 0,0.309 -0.071,0.54 -0.214,0.695 -0.143,0.154 -0.326,0.231 -0.552,0.231 -0.221,0 -0.405,-0.08 -0.549,-0.24 -0.145,-0.16 -0.217,-0.388 -0.217,-0.685 z m -3.188,-2.38 c 0,0.439 0.068,0.813 0.205,1.122 0.137,0.309 0.324,0.541 0.561,0.697 0.238,0.157 0.497,0.236 0.777,0.236 0.285,0 0.545,-0.075 0.781,-0.223 0.235,-0.148 0.423,-0.376 0.564,-0.682 0.141,-0.307 0.211,-0.691 0.211,-1.149 0,-0.432 -0.07,-0.803 -0.211,-1.114 -0.14,-0.31 -0.33,-0.547 -0.57,-0.712 -0.24,-0.164 -0.502,-0.245 -0.786,-0.245 -0.297,0 -0.562,0.084 -0.796,0.252 -0.233,0.168 -0.414,0.409 -0.543,0.724 -0.129,0.313 -0.193,0.678 -0.193,1.094 z"
   id="path172"
   inkscape:connector-curvature="0" />
			<path
   style="fill:#4d4d4d"
   d="m 187.454,482.814 h -3.17 c 0.004,0.367 0.078,0.692 0.223,0.973 0.144,0.281 0.336,0.493 0.576,0.635 0.24,0.143 0.504,0.213 0.793,0.213 0.194,0 0.371,-0.022 0.531,-0.067 0.16,-0.046 0.316,-0.117 0.466,-0.214 0.15,-0.096 0.289,-0.201 0.415,-0.312 0.126,-0.111 0.29,-0.262 0.493,-0.452 0.083,-0.071 0.202,-0.107 0.357,-0.107 0.166,0 0.3,0.046 0.403,0.137 0.103,0.092 0.155,0.219 0.155,0.386 0,0.147 -0.058,0.317 -0.172,0.513 -0.116,0.196 -0.289,0.384 -0.52,0.564 -0.232,0.18 -0.522,0.329 -0.873,0.448 -0.35,0.119 -0.753,0.178 -1.208,0.178 -1.04,0 -1.85,-0.297 -2.428,-0.891 -0.578,-0.593 -0.866,-1.399 -0.866,-2.416 0,-0.479 0.071,-0.924 0.213,-1.332 0.143,-0.41 0.351,-0.761 0.623,-1.054 0.273,-0.293 0.609,-0.517 1.01,-0.674 0.399,-0.156 0.843,-0.234 1.33,-0.234 0.633,0 1.176,0.132 1.629,0.4 0.454,0.267 0.793,0.612 1.019,1.035 0.225,0.424 0.338,0.856 0.338,1.294 0,0.408 -0.117,0.672 -0.35,0.793 -0.235,0.123 -0.563,0.184 -0.987,0.184 z m -3.17,-0.92 h 2.939 c -0.039,-0.554 -0.189,-0.969 -0.448,-1.244 -0.259,-0.275 -0.6,-0.413 -1.024,-0.413 -0.404,0 -0.735,0.139 -0.994,0.418 -0.26,0.279 -0.417,0.693 -0.473,1.239 z"
   id="path174"
   inkscape:connector-curvature="0" />
			<path
   style="fill:#4d4d4d"
   d="m 194.838,483.591 c 0,0.447 -0.108,0.831 -0.327,1.149 -0.217,0.319 -0.539,0.56 -0.965,0.724 -0.425,0.164 -0.943,0.246 -1.552,0.246 -0.582,0 -1.08,-0.089 -1.496,-0.267 -0.415,-0.178 -0.722,-0.401 -0.92,-0.667 -0.198,-0.268 -0.297,-0.535 -0.297,-0.805 0,-0.178 0.063,-0.33 0.19,-0.457 0.126,-0.126 0.287,-0.19 0.481,-0.19 0.17,0 0.3,0.042 0.391,0.125 0.091,0.083 0.179,0.2 0.261,0.35 0.166,0.29 0.366,0.504 0.597,0.648 0.231,0.142 0.547,0.214 0.947,0.214 0.325,0 0.591,-0.073 0.798,-0.217 0.208,-0.145 0.311,-0.31 0.311,-0.496 0,-0.285 -0.108,-0.492 -0.324,-0.622 -0.216,-0.131 -0.571,-0.256 -1.066,-0.375 -0.558,-0.138 -1.012,-0.284 -1.362,-0.436 -0.35,-0.151 -0.63,-0.353 -0.84,-0.602 -0.21,-0.25 -0.315,-0.557 -0.315,-0.921 0,-0.324 0.097,-0.631 0.291,-0.92 0.194,-0.288 0.48,-0.519 0.858,-0.691 0.377,-0.173 0.833,-0.259 1.368,-0.259 0.42,0 0.797,0.043 1.131,0.131 0.335,0.086 0.614,0.204 0.837,0.35 0.224,0.146 0.394,0.308 0.51,0.486 0.117,0.178 0.175,0.352 0.175,0.523 0,0.186 -0.062,0.338 -0.186,0.457 -0.124,0.118 -0.301,0.178 -0.532,0.178 -0.166,0 -0.308,-0.048 -0.424,-0.143 -0.117,-0.094 -0.25,-0.237 -0.401,-0.427 -0.123,-0.158 -0.266,-0.285 -0.433,-0.38 -0.166,-0.095 -0.392,-0.142 -0.677,-0.142 -0.293,0 -0.536,0.062 -0.73,0.187 -0.194,0.124 -0.291,0.279 -0.291,0.465 0,0.171 0.071,0.31 0.213,0.419 0.143,0.109 0.334,0.2 0.576,0.27 0.241,0.071 0.573,0.158 0.997,0.261 0.502,0.123 0.913,0.27 1.231,0.44 0.318,0.17 0.56,0.371 0.725,0.603 0.168,0.23 0.25,0.494 0.25,0.791 z"
   id="path176"
   inkscape:connector-curvature="0" />
			<path
   style="fill:#4d4d4d"
   d="m 196.493,478.368 c -0.225,0 -0.418,-0.07 -0.579,-0.208 -0.16,-0.138 -0.24,-0.334 -0.24,-0.588 0,-0.23 0.082,-0.418 0.246,-0.567 0.164,-0.149 0.356,-0.223 0.573,-0.223 0.21,0 0.396,0.067 0.558,0.202 0.162,0.135 0.244,0.33 0.244,0.588 0,0.25 -0.08,0.444 -0.238,0.585 -0.158,0.14 -0.346,0.211 -0.564,0.211 z m 0.802,1.673 v 4.683 c 0,0.325 -0.077,0.571 -0.232,0.737 -0.155,0.166 -0.35,0.249 -0.588,0.249 -0.238,0 -0.431,-0.085 -0.579,-0.255 -0.149,-0.17 -0.222,-0.414 -0.222,-0.73 v -4.636 c 0,-0.32 0.074,-0.562 0.222,-0.724 0.148,-0.162 0.341,-0.244 0.579,-0.244 0.238,0 0.433,0.081 0.588,0.244 0.155,0.162 0.232,0.388 0.232,0.676 z"
   id="path178"
   inkscape:connector-curvature="0" />
			<path
   style="fill:#4d4d4d"
   d="m 204.395,480.309 v 4.707 c 0,0.538 -0.058,1.002 -0.173,1.39 -0.114,0.387 -0.298,0.708 -0.552,0.961 -0.253,0.253 -0.585,0.441 -0.994,0.563 -0.41,0.123 -0.919,0.184 -1.529,0.184 -0.558,0 -1.056,-0.078 -1.496,-0.234 -0.439,-0.157 -0.777,-0.358 -1.015,-0.605 -0.237,-0.247 -0.356,-0.502 -0.356,-0.763 0,-0.198 0.067,-0.359 0.202,-0.483 0.134,-0.125 0.297,-0.187 0.486,-0.187 0.237,0 0.445,0.105 0.623,0.314 0.087,0.107 0.177,0.215 0.27,0.324 0.093,0.109 0.197,0.202 0.309,0.28 0.113,0.076 0.248,0.134 0.407,0.172 0.158,0.037 0.341,0.056 0.546,0.056 0.42,0 0.745,-0.058 0.977,-0.175 0.232,-0.117 0.394,-0.28 0.487,-0.49 0.093,-0.209 0.147,-0.433 0.163,-0.673 0.016,-0.24 0.027,-0.624 0.035,-1.155 -0.25,0.349 -0.537,0.615 -0.864,0.797 -0.326,0.182 -0.715,0.273 -1.166,0.273 -0.542,0 -1.016,-0.139 -1.422,-0.416 -0.405,-0.277 -0.717,-0.665 -0.934,-1.163 -0.218,-0.499 -0.326,-1.074 -0.326,-1.727 0,-0.487 0.066,-0.927 0.198,-1.318 0.133,-0.393 0.322,-0.723 0.567,-0.992 0.245,-0.269 0.528,-0.472 0.849,-0.608 0.32,-0.136 0.673,-0.204 1.057,-0.204 0.459,0 0.857,0.089 1.193,0.264 0.336,0.177 0.649,0.453 0.938,0.829 v -0.22 c 0,-0.281 0.069,-0.498 0.208,-0.653 0.139,-0.154 0.317,-0.231 0.535,-0.231 0.313,0 0.52,0.103 0.623,0.306 0.102,0.199 0.154,0.493 0.154,0.877 z m -4.696,2.054 c 0,0.657 0.143,1.154 0.43,1.49 0.287,0.337 0.658,0.505 1.113,0.505 0.269,0 0.523,-0.073 0.762,-0.217 0.24,-0.145 0.435,-0.362 0.585,-0.653 0.15,-0.291 0.226,-0.644 0.226,-1.06 0,-0.66 -0.145,-1.175 -0.436,-1.543 -0.291,-0.368 -0.674,-0.552 -1.149,-0.552 -0.463,0 -0.834,0.176 -1.113,0.529 -0.279,0.351 -0.418,0.852 -0.418,1.501 z"
   id="path180"
   inkscape:connector-curvature="0" />
			<path
   style="fill:#4d4d4d"
   d="m 206.97,480.018 v 0.196 c 0.284,-0.376 0.596,-0.652 0.935,-0.828 0.338,-0.176 0.727,-0.264 1.166,-0.264 0.428,0 0.809,0.093 1.146,0.28 0.336,0.186 0.588,0.449 0.753,0.788 0.107,0.198 0.176,0.413 0.208,0.642 0.032,0.23 0.048,0.522 0.048,0.879 v 3.015 c 0,0.325 -0.075,0.571 -0.223,0.737 -0.148,0.166 -0.341,0.249 -0.579,0.249 -0.242,0 -0.437,-0.085 -0.588,-0.255 -0.151,-0.17 -0.226,-0.414 -0.226,-0.73 v -2.701 c 0,-0.534 -0.074,-0.943 -0.223,-1.226 -0.149,-0.283 -0.444,-0.425 -0.888,-0.425 -0.288,0 -0.552,0.086 -0.789,0.258 -0.238,0.173 -0.412,0.41 -0.522,0.71 -0.079,0.242 -0.119,0.692 -0.119,1.353 v 2.03 c 0,0.328 -0.077,0.576 -0.228,0.74 -0.152,0.164 -0.349,0.246 -0.59,0.246 -0.234,0 -0.425,-0.085 -0.576,-0.255 -0.15,-0.17 -0.225,-0.414 -0.225,-0.73 v -4.683 c 0,-0.309 0.067,-0.54 0.202,-0.692 0.135,-0.152 0.319,-0.228 0.552,-0.228 0.143,0 0.272,0.034 0.387,0.101 0.114,0.068 0.207,0.168 0.276,0.302 0.068,0.132 0.103,0.297 0.103,0.491 z"
   id="path182"
   inkscape:connector-curvature="0" />
			<path
   style="fill:#4d4d4d"
   d="m 216.829,482.814 h -3.17 c 0.004,0.367 0.078,0.692 0.223,0.973 0.144,0.281 0.336,0.493 0.576,0.635 0.239,0.143 0.503,0.213 0.792,0.213 0.194,0 0.371,-0.022 0.532,-0.067 0.16,-0.046 0.315,-0.117 0.466,-0.214 0.15,-0.096 0.288,-0.201 0.416,-0.312 0.126,-0.111 0.29,-0.262 0.492,-0.452 0.083,-0.071 0.202,-0.107 0.356,-0.107 0.166,0 0.301,0.046 0.404,0.137 0.103,0.092 0.154,0.219 0.154,0.386 0,0.147 -0.057,0.317 -0.172,0.513 -0.115,0.196 -0.288,0.384 -0.52,0.564 -0.232,0.18 -0.522,0.329 -0.872,0.448 -0.35,0.119 -0.753,0.178 -1.208,0.178 -1.041,0 -1.85,-0.297 -2.428,-0.891 -0.577,-0.593 -0.866,-1.399 -0.866,-2.416 0,-0.479 0.071,-0.924 0.214,-1.332 0.143,-0.41 0.351,-0.761 0.624,-1.054 0.273,-0.293 0.609,-0.517 1.009,-0.674 0.399,-0.156 0.843,-0.234 1.33,-0.234 0.633,0 1.175,0.132 1.629,0.4 0.454,0.267 0.793,0.612 1.019,1.035 0.225,0.424 0.339,0.856 0.339,1.294 0,0.408 -0.117,0.672 -0.35,0.793 -0.237,0.123 -0.565,0.184 -0.989,0.184 z m -3.17,-0.92 h 2.938 c -0.039,-0.554 -0.189,-0.969 -0.448,-1.244 -0.259,-0.275 -0.601,-0.413 -1.024,-0.413 -0.404,0 -0.736,0.139 -0.995,0.418 -0.259,0.279 -0.415,0.693 -0.471,1.239 z"
   id="path184"
   inkscape:connector-curvature="0" />
			<path
   style="fill:#4d4d4d"
   d="m 223.435,484.784 v -0.161 c -0.218,0.249 -0.432,0.452 -0.644,0.608 -0.212,0.157 -0.441,0.276 -0.689,0.356 -0.247,0.082 -0.517,0.122 -0.81,0.122 -0.389,0 -0.747,-0.082 -1.077,-0.246 -0.331,-0.164 -0.617,-0.399 -0.858,-0.704 -0.242,-0.305 -0.424,-0.662 -0.549,-1.074 -0.125,-0.412 -0.187,-0.857 -0.187,-1.335 0,-1.013 0.247,-1.804 0.742,-2.369 0.495,-0.565 1.146,-0.848 1.953,-0.848 0.467,0 0.861,0.081 1.181,0.24 0.32,0.16 0.633,0.408 0.938,0.739 v -2.392 c 0,-0.333 0.066,-0.584 0.199,-0.754 0.132,-0.17 0.322,-0.255 0.567,-0.255 0.245,0 0.434,0.078 0.567,0.234 0.132,0.157 0.199,0.386 0.199,0.691 v 7.147 c 0,0.309 -0.071,0.54 -0.214,0.695 -0.142,0.154 -0.326,0.231 -0.552,0.231 -0.221,0 -0.405,-0.08 -0.549,-0.24 -0.145,-0.16 -0.217,-0.388 -0.217,-0.685 z m -3.187,-2.38 c 0,0.439 0.068,0.813 0.205,1.122 0.136,0.309 0.323,0.541 0.561,0.697 0.237,0.157 0.496,0.236 0.777,0.236 0.285,0 0.546,-0.075 0.781,-0.223 0.236,-0.148 0.424,-0.376 0.564,-0.682 0.141,-0.307 0.211,-0.691 0.211,-1.149 0,-0.432 -0.07,-0.803 -0.211,-1.114 -0.14,-0.31 -0.33,-0.547 -0.57,-0.712 -0.24,-0.164 -0.502,-0.245 -0.787,-0.245 -0.296,0 -0.562,0.084 -0.795,0.252 -0.233,0.168 -0.414,0.409 -0.543,0.724 -0.129,0.315 -0.193,0.678 -0.193,1.094 z"
   id="path186"
   inkscape:connector-curvature="0" />
			<path
   style="fill:#4d4d4d"
   d="m 230.059,477.637 v 2.475 c 0.305,-0.316 0.615,-0.559 0.932,-0.727 0.316,-0.168 0.709,-0.252 1.176,-0.252 0.538,0 1.01,0.128 1.416,0.382 0.405,0.256 0.72,0.626 0.944,1.111 0.223,0.484 0.336,1.06 0.336,1.725 0,0.491 -0.063,0.94 -0.187,1.35 -0.125,0.409 -0.306,0.765 -0.543,1.065 -0.238,0.301 -0.525,0.534 -0.864,0.698 -0.339,0.164 -0.712,0.246 -1.119,0.246 -0.25,0 -0.484,-0.029 -0.703,-0.089 -0.22,-0.059 -0.407,-0.137 -0.561,-0.234 -0.154,-0.096 -0.286,-0.197 -0.395,-0.3 -0.109,-0.102 -0.253,-0.258 -0.431,-0.463 v 0.161 c 0,0.305 -0.073,0.535 -0.22,0.692 -0.146,0.156 -0.332,0.234 -0.558,0.234 -0.23,0 -0.413,-0.077 -0.549,-0.234 -0.137,-0.157 -0.205,-0.387 -0.205,-0.692 v -7.076 c 0,-0.328 0.066,-0.577 0.198,-0.745 0.133,-0.168 0.318,-0.252 0.555,-0.252 0.25,0 0.441,0.08 0.576,0.24 0.135,0.16 0.202,0.388 0.202,0.685 z m 0.077,4.815 c 0,0.645 0.147,1.14 0.442,1.486 0.295,0.347 0.682,0.521 1.161,0.521 0.407,0 0.759,-0.177 1.053,-0.532 0.295,-0.355 0.442,-0.862 0.442,-1.523 0,-0.427 -0.061,-0.796 -0.184,-1.104 -0.123,-0.309 -0.297,-0.547 -0.522,-0.715 -0.226,-0.168 -0.489,-0.252 -0.79,-0.252 -0.309,0 -0.584,0.084 -0.825,0.252 -0.241,0.168 -0.431,0.411 -0.57,0.73 -0.138,0.318 -0.207,0.697 -0.207,1.137 z"
   id="path188"
   inkscape:connector-curvature="0" />
			<path
   style="fill:#4d4d4d"
   d="m 236.963,485.912 0.148,-0.363 -1.995,-5.022 c -0.122,-0.288 -0.184,-0.499 -0.184,-0.629 0,-0.139 0.036,-0.267 0.107,-0.385 0.071,-0.119 0.169,-0.214 0.294,-0.285 0.125,-0.072 0.255,-0.107 0.389,-0.107 0.233,0 0.409,0.074 0.529,0.223 0.119,0.148 0.223,0.361 0.314,0.638 l 1.371,3.989 1.3,-3.71 c 0.103,-0.3 0.196,-0.536 0.279,-0.706 0.083,-0.17 0.171,-0.285 0.264,-0.344 0.093,-0.06 0.225,-0.09 0.395,-0.09 0.123,0 0.24,0.032 0.353,0.098 0.113,0.065 0.2,0.153 0.261,0.264 0.061,0.111 0.092,0.227 0.092,0.35 -0.016,0.075 -0.042,0.182 -0.077,0.321 -0.036,0.138 -0.079,0.28 -0.13,0.421 l -2.113,5.533 c -0.183,0.486 -0.36,0.868 -0.535,1.145 -0.174,0.277 -0.404,0.491 -0.691,0.638 -0.287,0.149 -0.674,0.223 -1.161,0.223 -0.475,0 -0.831,-0.051 -1.068,-0.154 -0.238,-0.104 -0.357,-0.292 -0.357,-0.564 0,-0.186 0.056,-0.33 0.169,-0.43 0.112,-0.101 0.28,-0.152 0.501,-0.152 0.087,0 0.173,0.012 0.256,0.037 0.103,0.023 0.192,0.035 0.267,0.035 0.186,0 0.333,-0.027 0.44,-0.084 0.107,-0.055 0.202,-0.151 0.288,-0.288 0.084,-0.135 0.183,-0.337 0.294,-0.602 z"
   id="path190"
   inkscape:connector-curvature="0" />
		</g>
		<g
   id="g216">
			<path
   style="fill:#4d4d4d"
   d="m 260.439,479.261 h 0.386 v -0.487 c 0,-0.509 0.062,-0.911 0.192,-1.211 0.128,-0.299 0.347,-0.516 0.654,-0.653 0.306,-0.135 0.727,-0.204 1.26,-0.204 0.95,0 1.42,0.229 1.42,0.697 0,0.149 -0.049,0.278 -0.15,0.384 -0.096,0.106 -0.214,0.16 -0.348,0.16 -0.062,0 -0.174,-0.012 -0.33,-0.037 -0.148,-0.021 -0.283,-0.035 -0.389,-0.035 -0.292,0 -0.479,0.088 -0.566,0.259 -0.079,0.172 -0.122,0.418 -0.122,0.74 v 0.386 h 0.395 c 0.62,0 0.926,0.185 0.926,0.56 0,0.262 -0.079,0.431 -0.245,0.503 -0.164,0.071 -0.39,0.107 -0.681,0.107 h -0.395 v 4.294 c 0,0.319 -0.075,0.563 -0.231,0.73 -0.151,0.17 -0.346,0.254 -0.589,0.254 -0.23,0 -0.419,-0.084 -0.574,-0.254 -0.153,-0.167 -0.228,-0.411 -0.228,-0.73 v -4.294 h -0.446 c -0.243,0 -0.427,-0.052 -0.558,-0.164 -0.131,-0.107 -0.197,-0.25 -0.197,-0.424 0.001,-0.388 0.273,-0.581 0.816,-0.581"
   id="path194"
   inkscape:connector-curvature="0" />
			<path
   style="fill:#4d4d4d"
   d="m 265.745,483.37 v 1.355 c 0,0.327 -0.083,0.574 -0.234,0.737 -0.154,0.166 -0.349,0.247 -0.586,0.247 -0.239,0 -0.43,-0.082 -0.579,-0.25 -0.148,-0.165 -0.225,-0.41 -0.225,-0.734 v -4.514 c 0,-0.729 0.262,-1.093 0.788,-1.093 0.271,0 0.465,0.084 0.583,0.255 0.118,0.171 0.184,0.421 0.198,0.755 0.192,-0.334 0.39,-0.584 0.593,-0.755 0.207,-0.171 0.477,-0.255 0.818,-0.255 0.343,0 0.67,0.084 0.991,0.255 0.322,0.171 0.482,0.398 0.482,0.678 0,0.197 -0.069,0.362 -0.204,0.488 -0.137,0.131 -0.284,0.195 -0.441,0.195 -0.062,0 -0.207,-0.039 -0.433,-0.112 -0.228,-0.071 -0.43,-0.108 -0.602,-0.108 -0.237,0 -0.433,0.064 -0.582,0.186 -0.151,0.128 -0.269,0.311 -0.353,0.554 -0.081,0.247 -0.137,0.541 -0.17,0.878 -0.03,0.339 -0.044,0.752 -0.044,1.238"
   id="path196"
   inkscape:connector-curvature="0" />
			<path
   style="fill:#4d4d4d"
   d="m 273.196,482.812 h -3.171 c 0.005,0.367 0.078,0.694 0.222,0.974 0.147,0.279 0.338,0.491 0.578,0.635 0.24,0.142 0.502,0.212 0.793,0.212 0.194,0 0.37,-0.021 0.531,-0.07 0.159,-0.043 0.316,-0.116 0.466,-0.213 0.151,-0.095 0.287,-0.199 0.415,-0.313 0.126,-0.109 0.292,-0.26 0.494,-0.449 0.084,-0.071 0.203,-0.109 0.355,-0.109 0.168,0 0.301,0.046 0.406,0.138 0.104,0.092 0.152,0.219 0.152,0.386 0,0.147 -0.056,0.317 -0.167,0.512 -0.117,0.198 -0.289,0.385 -0.522,0.566 -0.234,0.178 -0.524,0.329 -0.874,0.446 -0.35,0.119 -0.754,0.179 -1.207,0.179 -1.044,0 -1.853,-0.296 -2.429,-0.889 -0.577,-0.595 -0.87,-1.401 -0.87,-2.418 0,-0.479 0.073,-0.924 0.217,-1.334 0.14,-0.411 0.349,-0.76 0.624,-1.055 0.272,-0.294 0.606,-0.518 1.008,-0.674 0.399,-0.156 0.842,-0.234 1.33,-0.234 0.632,0 1.176,0.134 1.629,0.403 0.452,0.264 0.796,0.61 1.018,1.034 0.226,0.426 0.339,0.855 0.339,1.296 0,0.405 -0.118,0.669 -0.351,0.791 -0.235,0.126 -0.563,0.186 -0.986,0.186 m -3.172,-0.921 h 2.938 c -0.039,-0.553 -0.186,-0.969 -0.446,-1.241 -0.261,-0.277 -0.599,-0.413 -1.025,-0.413 -0.403,0 -0.736,0.137 -0.995,0.418 -0.259,0.279 -0.417,0.69 -0.472,1.236"
   id="path198"
   inkscape:connector-curvature="0" />
			<path
   style="fill:#4d4d4d"
   d="m 279.938,482.812 h -3.171 c 0.004,0.367 0.078,0.694 0.222,0.974 0.145,0.279 0.337,0.491 0.576,0.635 0.239,0.142 0.504,0.212 0.795,0.212 0.192,0 0.37,-0.021 0.528,-0.07 0.162,-0.043 0.316,-0.116 0.469,-0.213 0.151,-0.095 0.287,-0.199 0.415,-0.313 0.125,-0.109 0.29,-0.26 0.493,-0.449 0.084,-0.071 0.204,-0.109 0.355,-0.109 0.168,0 0.302,0.046 0.406,0.138 0.103,0.092 0.15,0.219 0.15,0.386 0,0.147 -0.054,0.317 -0.171,0.512 -0.111,0.198 -0.285,0.385 -0.519,0.566 -0.231,0.178 -0.525,0.329 -0.872,0.446 -0.349,0.119 -0.755,0.179 -1.209,0.179 -1.042,0 -1.849,-0.296 -2.429,-0.889 -0.577,-0.595 -0.868,-1.401 -0.868,-2.418 0,-0.479 0.073,-0.924 0.217,-1.334 0.142,-0.411 0.349,-0.76 0.623,-1.055 0.272,-0.294 0.608,-0.518 1.009,-0.674 0.398,-0.156 0.844,-0.234 1.331,-0.234 0.63,0 1.174,0.134 1.633,0.403 0.45,0.264 0.791,0.61 1.013,1.034 0.225,0.426 0.341,0.855 0.341,1.296 0,0.405 -0.12,0.669 -0.351,0.791 -0.236,0.126 -0.564,0.186 -0.986,0.186 m -3.171,-0.921 h 2.938 c -0.04,-0.553 -0.19,-0.969 -0.447,-1.241 -0.263,-0.277 -0.601,-0.413 -1.027,-0.413 -0.403,0 -0.735,0.137 -0.995,0.418 -0.258,0.279 -0.417,0.69 -0.469,1.236"
   id="path200"
   inkscape:connector-curvature="0" />
			<path
   style="fill:#4d4d4d"
   d="m 283.487,480.03 v 0.194 c 0.304,-0.375 0.621,-0.651 0.953,-0.828 0.324,-0.178 0.699,-0.267 1.114,-0.267 0.497,0 0.959,0.13 1.379,0.386 0.419,0.259 0.749,0.635 0.993,1.129 0.244,0.497 0.366,1.081 0.366,1.758 0,0.497 -0.07,0.957 -0.21,1.376 -0.14,0.418 -0.336,0.767 -0.581,1.05 -0.246,0.281 -0.535,0.501 -0.868,0.654 -0.339,0.151 -0.695,0.227 -1.08,0.227 -0.461,0 -0.853,-0.093 -1.166,-0.28 -0.314,-0.182 -0.614,-0.458 -0.901,-0.816 v 2.433 c 0,0.71 -0.26,1.069 -0.778,1.069 -0.306,0 -0.505,-0.092 -0.607,-0.275 -0.095,-0.187 -0.146,-0.452 -0.146,-0.807 v -6.996 c 0,-0.309 0.066,-0.537 0.2,-0.692 0.134,-0.15 0.32,-0.228 0.553,-0.228 0.231,0 0.416,0.078 0.56,0.234 0.149,0.159 0.219,0.382 0.219,0.679 m 3.178,2.354 c 0,-0.428 -0.067,-0.796 -0.197,-1.102 -0.131,-0.308 -0.312,-0.542 -0.541,-0.705 -0.23,-0.164 -0.489,-0.248 -0.77,-0.248 -0.446,0 -0.824,0.178 -1.13,0.527 -0.308,0.354 -0.462,0.872 -0.462,1.558 0,0.641 0.153,1.146 0.46,1.504 0.305,0.358 0.679,0.536 1.133,0.536 0.268,0 0.519,-0.079 0.748,-0.233 0.232,-0.158 0.416,-0.392 0.552,-0.704 0.137,-0.311 0.207,-0.69 0.207,-1.133"
   id="path202"
   inkscape:connector-curvature="0" />
			<path
   style="fill:#4d4d4d"
   d="m 289.925,478.363 c -0.226,0 -0.418,-0.071 -0.577,-0.209 -0.162,-0.139 -0.242,-0.333 -0.242,-0.585 0,-0.23 0.082,-0.419 0.248,-0.569 0.164,-0.146 0.354,-0.222 0.571,-0.222 0.212,0 0.397,0.066 0.559,0.2 0.162,0.137 0.244,0.334 0.244,0.591 0,0.25 -0.079,0.444 -0.236,0.585 -0.16,0.138 -0.347,0.209 -0.567,0.209 m 0.802,1.675 v 4.689 c 0,0.322 -0.077,0.568 -0.231,0.732 -0.156,0.169 -0.35,0.25 -0.588,0.25 -0.238,0 -0.428,-0.084 -0.58,-0.254 -0.146,-0.173 -0.222,-0.416 -0.222,-0.729 v -4.642 c 0,-0.319 0.076,-0.559 0.222,-0.721 0.152,-0.165 0.342,-0.245 0.58,-0.245 0.238,0 0.432,0.079 0.588,0.245 0.154,0.162 0.231,0.388 0.231,0.675"
   id="path204"
   inkscape:connector-curvature="0" />
			<path
   style="fill:#4d4d4d"
   d="m 295.952,484.969 -1.428,-2.353 -0.88,0.83 v 1.291 c 0,0.312 -0.083,0.551 -0.248,0.718 -0.16,0.17 -0.354,0.254 -0.566,0.254 -0.249,0 -0.447,-0.082 -0.588,-0.25 -0.142,-0.165 -0.215,-0.41 -0.215,-0.734 v -6.915 c 0,-0.358 0.071,-0.632 0.207,-0.821 0.139,-0.19 0.341,-0.283 0.596,-0.283 0.25,0 0.446,0.086 0.593,0.257 0.146,0.169 0.221,0.421 0.221,0.751 v 3.933 l 1.823,-1.914 c 0.227,-0.235 0.396,-0.4 0.517,-0.486 0.118,-0.087 0.262,-0.13 0.431,-0.13 0.204,0 0.371,0.065 0.51,0.193 0.132,0.129 0.2,0.291 0.2,0.483 0,0.237 -0.221,0.556 -0.659,0.951 l -0.861,0.789 1.662,2.614 c 0.121,0.196 0.212,0.34 0.265,0.441 0.053,0.1 0.081,0.2 0.081,0.289 0,0.258 -0.071,0.459 -0.213,0.61 -0.14,0.148 -0.327,0.221 -0.554,0.221 -0.198,0 -0.352,-0.051 -0.458,-0.16 -0.106,-0.107 -0.255,-0.301 -0.436,-0.579"
   id="path206"
   inkscape:connector-curvature="0" />
			<path
   style="fill:#4d4d4d"
   d="m 299.474,485.709 c -0.245,0 -0.455,-0.079 -0.634,-0.238 -0.178,-0.156 -0.268,-0.378 -0.268,-0.665 0,-0.241 0.086,-0.449 0.256,-0.622 0.172,-0.175 0.38,-0.262 0.63,-0.262 0.248,0 0.46,0.087 0.639,0.258 0.174,0.172 0.264,0.383 0.264,0.626 0,0.283 -0.089,0.505 -0.264,0.662 -0.178,0.162 -0.386,0.241 -0.623,0.241"
   id="path208"
   inkscape:connector-curvature="0" />
			<path
   style="fill:#4d4d4d"
   d="m 307.536,483.703 c 0,0.2 -0.06,0.417 -0.182,0.646 -0.12,0.231 -0.305,0.449 -0.553,0.656 -0.247,0.207 -0.557,0.377 -0.935,0.502 -0.375,0.126 -0.8,0.192 -1.269,0.192 -1.004,0 -1.787,-0.294 -2.349,-0.876 -0.56,-0.585 -0.841,-1.368 -0.841,-2.35 0,-0.667 0.128,-1.254 0.387,-1.765 0.255,-0.509 0.628,-0.905 1.113,-1.184 0.487,-0.28 1.072,-0.419 1.746,-0.419 0.421,0 0.805,0.061 1.158,0.184 0.35,0.122 0.645,0.282 0.89,0.474 0.242,0.197 0.429,0.402 0.556,0.62 0.129,0.22 0.192,0.425 0.192,0.617 0,0.192 -0.071,0.357 -0.214,0.492 -0.147,0.134 -0.322,0.203 -0.524,0.203 -0.137,0 -0.249,-0.035 -0.338,-0.104 -0.09,-0.07 -0.19,-0.181 -0.299,-0.339 -0.198,-0.299 -0.404,-0.526 -0.623,-0.674 -0.214,-0.152 -0.488,-0.226 -0.821,-0.226 -0.476,0 -0.865,0.186 -1.159,0.561 -0.292,0.372 -0.439,0.887 -0.439,1.534 0,0.305 0.039,0.587 0.114,0.842 0.073,0.255 0.182,0.472 0.325,0.652 0.144,0.179 0.315,0.316 0.516,0.409 0.203,0.096 0.425,0.141 0.665,0.141 0.326,0 0.604,-0.075 0.836,-0.225 0.235,-0.151 0.439,-0.38 0.616,-0.689 0.099,-0.182 0.204,-0.323 0.318,-0.427 0.114,-0.102 0.256,-0.156 0.422,-0.156 0.198,0 0.363,0.077 0.491,0.226 0.134,0.152 0.201,0.314 0.201,0.483"
   id="path210"
   inkscape:connector-curvature="0" />
			<path
   style="fill:#4d4d4d"
   d="m 314.53,482.415 c 0,0.481 -0.076,0.928 -0.222,1.337 -0.155,0.408 -0.37,0.758 -0.656,1.049 -0.285,0.293 -0.626,0.518 -1.02,0.675 -0.4,0.154 -0.844,0.234 -1.337,0.234 -0.491,0 -0.933,-0.08 -1.326,-0.239 -0.389,-0.156 -0.732,-0.384 -1.016,-0.676 -0.288,-0.298 -0.505,-0.646 -0.657,-1.048 -0.143,-0.402 -0.219,-0.847 -0.219,-1.332 0,-0.491 0.078,-0.941 0.224,-1.349 0.151,-0.409 0.368,-0.758 0.649,-1.046 0.282,-0.289 0.621,-0.511 1.019,-0.669 0.402,-0.156 0.844,-0.234 1.326,-0.234 0.49,0 0.936,0.078 1.337,0.239 0.398,0.157 0.739,0.384 1.027,0.674 0.286,0.297 0.502,0.643 0.65,1.045 0.146,0.408 0.221,0.851 0.221,1.34 m -1.627,0 c 0,-0.662 -0.146,-1.176 -0.436,-1.543 -0.289,-0.372 -0.681,-0.555 -1.171,-0.555 -0.317,0 -0.597,0.082 -0.839,0.246 -0.242,0.164 -0.425,0.406 -0.556,0.728 -0.131,0.321 -0.197,0.696 -0.197,1.124 0,0.424 0.064,0.792 0.193,1.108 0.13,0.319 0.314,0.561 0.554,0.729 0.241,0.167 0.522,0.253 0.845,0.253 0.49,0 0.882,-0.185 1.171,-0.557 0.289,-0.37 0.436,-0.882 0.436,-1.533"
   id="path212"
   inkscape:connector-curvature="0" />
			<path
   style="fill:#4d4d4d"
   d="m 320.712,482.534 v 2.154 c 0,0.342 -0.075,0.594 -0.231,0.767 -0.156,0.17 -0.357,0.255 -0.611,0.255 -0.245,0 -0.446,-0.085 -0.594,-0.255 -0.154,-0.173 -0.233,-0.425 -0.233,-0.767 v -2.582 c 0,-0.408 -0.013,-0.726 -0.04,-0.953 -0.029,-0.221 -0.105,-0.41 -0.227,-0.552 -0.123,-0.147 -0.318,-0.22 -0.582,-0.22 -0.532,0 -0.879,0.181 -1.048,0.551 -0.167,0.36 -0.254,0.883 -0.254,1.567 v 2.189 c 0,0.336 -0.076,0.591 -0.226,0.765 -0.156,0.171 -0.355,0.258 -0.603,0.258 -0.247,0 -0.448,-0.087 -0.604,-0.258 -0.157,-0.173 -0.235,-0.428 -0.235,-0.765 v -4.637 c 0,-0.306 0.07,-0.538 0.209,-0.695 0.143,-0.16 0.329,-0.239 0.556,-0.239 0.223,0 0.407,0.077 0.557,0.222 0.148,0.149 0.221,0.354 0.221,0.615 v 0.153 c 0.283,-0.334 0.584,-0.582 0.903,-0.738 0.323,-0.162 0.676,-0.241 1.07,-0.241 0.407,0 0.757,0.082 1.049,0.243 0.294,0.163 0.533,0.409 0.725,0.735 0.275,-0.33 0.568,-0.577 0.881,-0.738 0.313,-0.161 0.658,-0.241 1.039,-0.241 0.441,0 0.826,0.089 1.146,0.262 0.319,0.174 0.558,0.425 0.717,0.747 0.138,0.295 0.206,0.756 0.206,1.385 v 3.164 c 0,0.342 -0.076,0.594 -0.23,0.767 -0.154,0.17 -0.359,0.255 -0.612,0.255 -0.247,0 -0.446,-0.087 -0.603,-0.258 -0.156,-0.173 -0.235,-0.428 -0.235,-0.765 v -2.726 c 0,-0.349 -0.015,-0.627 -0.043,-0.836 -0.029,-0.211 -0.11,-0.388 -0.239,-0.529 -0.133,-0.142 -0.331,-0.215 -0.596,-0.215 -0.214,0 -0.416,0.066 -0.609,0.192 -0.192,0.124 -0.342,0.298 -0.45,0.508 -0.112,0.278 -0.174,0.762 -0.174,1.456"
   id="path214"
   inkscape:connector-curvature="0" />
		</g>
		<g
   id="g238">
			<path
   style="fill:#4d4d4d"
   d="m 245.272,482.023 c -0.001,-0.003 -0.001,-0.006 -0.001,-0.011 0,0.005 0,0.008 0.001,0.011 z"
   id="path218"
   inkscape:connector-curvature="0" />
			<path
   style="fill:#4d4d4d"
   d="m 245.354,482.541 c 10e-4,0 10e-4,0 10e-4,0 -0.031,-0.148 -0.055,-0.294 -0.074,-0.439 0.019,0.146 0.043,0.293 0.073,0.439 z"
   id="path220"
   inkscape:connector-curvature="0" />
			<path
   style="fill:#4d4d4d"
   d="m 245.89,484.045 c -0.004,-0.006 -0.007,-0.013 -0.011,-0.021 0.004,0.007 0.007,0.015 0.011,0.021 z"
   id="path222"
   inkscape:connector-curvature="0" />
			<path
   style="fill:#4d4d4d"
   d="m 245.839,483.945 c -0.014,-0.027 -0.027,-0.056 -0.041,-0.084 0.013,0.029 0.027,0.056 0.041,0.084 z"
   id="path224"
   inkscape:connector-curvature="0" />
			<path
   style="fill:#4d4d4d"
   d="m 245.504,483.12 c 0.079,0.25 0.175,0.493 0.286,0.724 -0.113,-0.236 -0.206,-0.479 -0.283,-0.724 0,0 -0.002,0 -0.003,0 z"
   id="path226"
   inkscape:connector-curvature="0" />
			<path
   style="fill:#4d4d4d"
   d="m 251.545,475.812 c 0.313,0 0.545,0.025 0.809,0.07 l 0.075,-0.477 c 0,0 -0.732,-0.225 -1.694,-0.147 l -0.076,-0.259 c 0.299,-0.063 0.524,-0.329 0.524,-0.646 0,-0.364 -0.296,-0.659 -0.661,-0.659 -0.364,0 -0.66,0.295 -0.66,0.659 0,0.317 0.224,0.583 0.523,0.646 l 0.084,0.289 c -1.021,0.14 -1.835,0.539 -1.835,0.539 l 0.144,0.441 c 0.618,-0.206 1.154,-0.331 1.64,-0.383 0.477,-0.051 0.835,-0.073 1.127,-0.073 z"
   id="path228"
   inkscape:connector-curvature="0" />
			<path
   style="fill:#4d4d4d"
   d="m 245.878,478.224 0.004,-0.005 c 0.024,-0.031 0.047,-0.06 0.071,-0.089 l -0.196,-0.141 -0.305,-0.223 c -0.017,0.024 -0.497,0.465 -0.876,1.28 -0.016,-0.026 -0.035,-0.051 -0.056,-0.074 -0.114,-0.124 -0.272,-0.187 -0.474,-0.184 -0.003,0 -0.006,0 -0.009,0 -0.125,0 -0.211,-0.042 -0.267,-0.092 0.056,-0.071 0.089,-0.16 0.089,-0.258 0,-0.23 -0.187,-0.418 -0.418,-0.418 -0.23,0 -0.418,0.188 -0.418,0.418 0,0.231 0.187,0.418 0.418,0.418 0.036,0 0.071,-0.006 0.104,-0.013 0.103,0.114 0.266,0.214 0.505,0.209 0.123,-0.001 0.213,0.031 0.273,0.097 0.069,0.076 0.093,0.185 0.1,0.267 -0.001,10e-4 -0.001,0.003 -0.002,0.003 -0.272,0.743 -0.194,1.669 -0.194,1.669 l 0.661,0.026 c 0.013,-0.337 0.062,-0.927 0.232,-1.394 0.329,-0.906 0.741,-1.472 0.758,-1.496 z"
   id="path230"
   inkscape:connector-curvature="0" />
			<path
   style="fill:#4d4d4d"
   d="m 257.295,476.365 c -0.23,0 -0.418,0.187 -0.418,0.418 0,0.036 0.006,0.07 0.015,0.103 -0.115,0.104 -0.214,0.267 -0.211,0.507 0.002,0.123 -0.03,0.212 -0.096,0.273 -0.053,0.047 -0.12,0.072 -0.185,0.088 -0.492,-0.689 -1.098,-1.11 -1.098,-1.11 l -0.474,0.509 c 0.358,0.326 0.725,0.734 1.08,1.244 0.246,0.352 0.499,0.806 0.71,1.259 l 0.64,-0.304 c 0,0 -0.292,-0.722 -0.704,-1.37 0.071,-0.025 0.143,-0.064 0.207,-0.12 0.125,-0.113 0.187,-0.273 0.183,-0.474 -0.001,-0.13 0.042,-0.218 0.093,-0.276 0.071,0.054 0.16,0.089 0.258,0.089 0.232,0 0.419,-0.187 0.419,-0.418 0,-0.232 -0.187,-0.418 -0.419,-0.418 z"
   id="path232"
   inkscape:connector-curvature="0" />
			<path
   style="fill:#4d4d4d"
   d="m 255.634,482.116 c -0.881,0.429 -2.33,0.996 -4.238,1.262 -0.749,0.104 -1.475,0.142 -2.143,0.142 -0.869,0 -1.637,-0.065 -2.227,-0.139 -0.673,-0.085 -1.198,-0.189 -1.52,-0.261 0.077,0.245 0.171,0.488 0.283,0.724 0.002,0.006 0.005,0.013 0.008,0.017 0.013,0.027 0.027,0.056 0.041,0.084 0.014,0.027 0.027,0.054 0.041,0.079 0.004,0.007 0.007,0.015 0.011,0.021 0.189,0.357 0.417,0.684 0.675,0.968 0.9,0.984 1.817,1.14 1.826,1.141 l 0.014,0.002 0.014,0.005 c 0.008,0.003 0.821,0.266 2.057,0.266 1.216,0 2.409,-0.245 3.546,-0.729 0.842,-0.431 1.639,-1.085 2.034,-1.669 0.305,-0.452 0.526,-0.933 0.656,-1.434 0.069,-0.266 0.124,-0.692 0.092,-1.141 -0.248,0.166 -0.64,0.404 -1.17,0.662 z"
   id="path234"
   inkscape:connector-curvature="0" />
			<path
   style="fill:#4d4d4d"
   d="m 246.161,478.433 c -0.026,0.037 -0.408,0.578 -0.71,1.408 -0.226,0.622 -0.216,1.527 -0.216,1.538 v 0.002 c 0,0.212 0.012,0.423 0.035,0.632 0,0.005 0,0.008 10e-4,0.011 0.003,0.027 0.007,0.052 0.01,0.079 0.019,0.145 0.043,0.291 0.074,0.439 0.438,0.111 3.049,0.72 5.968,0.314 1.829,-0.254 3.218,-0.795 4.062,-1.204 0.701,-0.34 1.151,-0.648 1.325,-0.774 -0.173,-0.643 -0.651,-1.65 -1.089,-2.279 -1.253,-1.791 -2.604,-2.25 -3.298,-2.365 -0.265,-0.043 -0.477,-0.068 -0.777,-0.068 -0.279,0 -0.626,0.023 -1.089,0.071 -0.465,0.048 -0.982,0.17 -1.583,0.372 -0.842,0.282 -1.605,0.725 -2.204,1.28 l -0.02,0.019 c -0.09,0.081 -0.276,0.253 -0.489,0.525 z m 7.668,-0.417 c 0.6,0 1.089,0.488 1.089,1.09 0,0.601 -0.489,1.09 -1.089,1.09 -0.601,0 -1.089,-0.489 -1.089,-1.09 0,-0.602 0.488,-1.09 1.089,-1.09 z m -5.151,-0.044 c 0.973,0 1.761,0.788 1.761,1.761 0,0.972 -0.788,1.759 -1.761,1.759 -0.972,0 -1.76,-0.787 -1.76,-1.759 0,-0.972 0.788,-1.761 1.76,-1.761 z"
   id="path236"
   inkscape:connector-curvature="0" />
		</g>
	</g>
</g>
</svg>